<svg width="30" class="sidebar-color-logo" viewBox="0 0 38 38" fill="none" xmlns="http://www.w3.org/2000/svg">
    <path d="M1 12.9489C1 12.6727 1.22386 12.4489 1.5 12.4489H24.6371C24.8209 12.4489 24.9899 12.5497 25.0771 12.7115L27.2474 16.7351C27.4271 17.0682 27.1859 17.4725 26.8074 17.4725H1.5C1.22386 17.4725 1 17.2486 1 16.9725V12.9489Z" fill="#50304A"/>
    <path d="M1 6.5C1 6.22386 1.22386 6 1.5 6H27.725C27.8963 6 28.0556 6.08762 28.1473 6.23221L35.8406 18.3629C35.9388 18.5177 35.9444 18.7139 35.8552 18.8741L28.1269 32.7434C28.0386 32.9018 27.8715 33 27.6901 33H15.177C14.7947 33 14.5539 32.5884 14.7411 32.2551L17.0018 28.2315C17.0904 28.0739 17.257 27.9764 17.4377 27.9764H24.5282C24.7099 27.9764 24.8773 27.8778 24.9654 27.7189L29.8765 18.8659C29.9629 18.7101 29.9599 18.52 29.8686 18.367L25.6294 11.2673C25.5391 11.1162 25.3761 11.0236 25.2001 11.0236H1.5C1.22386 11.0236 1 10.7998 1 10.5236V6.5Z" fill="#50304A"/>
    <rect x="8.56451" y="19.2992" width="4.96774" height="13.7008" rx="0.5" fill="#50304A"/>
</svg>